<svg id="visual" viewBox="0 0 900 600" width="900" height="600" xmlns="http://www.w3.org/2000/svg" xmlns:xlink="http://www.w3.org/1999/xlink" version="1.1"><rect x="0" y="0" width="900" height="600" fill="#99c9ef"></rect><path d="M0 441L21.5 431C43 421 86 401 128.8 400C171.7 399 214.3 417 257.2 426.3C300 435.7 343 436.3 385.8 431C428.7 425.7 471.3 414.3 514.2 412.7C557 411 600 419 642.8 412.5C685.7 406 728.3 385 771.2 375.7C814 366.3 857 368.7 878.5 369.8L900 371L900 601L878.5 601C857 601 814 601 771.2 601C728.3 601 685.7 601 642.8 601C600 601 557 601 514.2 601C471.3 601 428.7 601 385.8 601C343 601 300 601 257.2 601C214.3 601 171.7 601 128.8 601C86 601 43 601 21.5 601L0 601Z" fill="#faa369"></path><path d="M0 407L21.5 412.2C43 417.3 86 427.7 128.8 436.5C171.7 445.3 214.3 452.7 257.2 458.8C300 465 343 470 385.8 460.8C428.7 451.7 471.3 428.3 514.2 424C557 419.7 600 434.3 642.8 440.5C685.7 446.7 728.3 444.3 771.2 445.5C814 446.7 857 451.3 878.5 453.7L900 456L900 601L878.5 601C857 601 814 601 771.2 601C728.3 601 685.7 601 642.8 601C600 601 557 601 514.2 601C471.3 601 428.7 601 385.8 601C343 601 300 601 257.2 601C214.3 601 171.7 601 128.8 601C86 601 43 601 21.5 601L0 601Z" fill="#fab162"></path><path d="M0 479L21.5 482.8C43 486.7 86 494.3 128.8 487.3C171.7 480.3 214.3 458.7 257.2 451C300 443.3 343 449.7 385.8 452C428.7 454.3 471.3 452.7 514.2 455C557 457.3 600 463.7 642.8 468.2C685.7 472.7 728.3 475.3 771.2 472.3C814 469.3 857 460.7 878.5 456.3L900 452L900 601L878.5 601C857 601 814 601 771.2 601C728.3 601 685.7 601 642.8 601C600 601 557 601 514.2 601C471.3 601 428.7 601 385.8 601C343 601 300 601 257.2 601C214.3 601 171.7 601 128.8 601C86 601 43 601 21.5 601L0 601Z" fill="#f6c05e"></path><path d="M0 540L21.5 536C43 532 86 524 128.8 519.5C171.7 515 214.3 514 257.2 512.5C300 511 343 509 385.8 508C428.7 507 471.3 507 514.2 510C557 513 600 519 642.8 521.7C685.7 524.3 728.3 523.7 771.2 523C814 522.3 857 521.7 878.5 521.3L900 521L900 601L878.5 601C857 601 814 601 771.2 601C728.3 601 685.7 601 642.8 601C600 601 557 601 514.2 601C471.3 601 428.7 601 385.8 601C343 601 300 601 257.2 601C214.3 601 171.7 601 128.8 601C86 601 43 601 21.5 601L0 601Z" fill="#eed05d"></path><path d="M0 542L21.5 544.8C43 547.7 86 553.3 128.8 553.7C171.7 554 214.3 549 257.2 546.2C300 543.3 343 542.7 385.8 544C428.7 545.3 471.3 548.7 514.2 552C557 555.3 600 558.7 642.8 555.3C685.7 552 728.3 542 771.2 541.5C814 541 857 550 878.5 554.5L900 559L900 601L878.5 601C857 601 814 601 771.2 601C728.3 601 685.7 601 642.8 601C600 601 557 601 514.2 601C471.3 601 428.7 601 385.8 601C343 601 300 601 257.2 601C214.3 601 171.7 601 128.8 601C86 601 43 601 21.5 601L0 601Z" fill="#e3e062"></path></svg>